P3
32 18
255
172 205 255
172 205 255
171 205 255
171 205 255
171 205 255
170 204 255
170 204 255
170 204 255
169 204 255
169 204 255
169 203 255
169 203 255
168 203 255
168 203 255
168 203 255
168 203 255
168 203 255
168 203 255
168 203 255
168 203 255
169 203 255
169 203 255
169 204 255
169 204 255
169 204 255
170 204 255
170 204 255
171 205 255
171 205 255
171 205 255
172 205 255
172 205 255
174 207 255
174 207 255
174 206 255
173 206 255
173 206 255
173 206 255
172 206 255
172 205 255
172 205 255
172 205 255
171 205 255
171 205 255
171 205 255
171 205 255
171 205 255
171 205 255
171 205 255
171 205 255
171 205 255
171 205 255
171 205 255
171 205 255
172 205 255
171 205 255
172 205 255
172 205 255
173 206 255
173 206 255
173 206 255
173 206 255
174 207 255
174 207 255
176 208 255
176 208 255
176 208 255
175 207 255
175 207 255
175 207 255
175 207 255
174 207 255
174 207 255
174 207 255
174 206 255
174 206 255
173 206 255
173 206 255
173 206 255
173 206 255
173 206 255
173 206 255
173 206 255
173 206 255
173 206 255
174 206 255
174 207 255
174 207 255
174 207 255
175 207 255
175 207 255
175 207 255
176 208 255
176 208 255
176 208 255
176 208 255
178 209 255
178 209 255
178 209 255
178 209 255
178 209 255
177 209 255
177 208 255
177 208 255
177 208 255
177 208 255
176 208 255
176 208 255
176 208 255
176 208 255
176 208 255
176 208 255
176 208 255
176 208 255
176 208 255
176 208 255
176 208 255
176 208 255
176 208 255
177 208 255
177 208 255
177 208 255
177 209 255
177 209 255
178 209 255
178 209 255
178 209 255
178 209 255
181 211 255
181 211 255
180 210 255
180 210 255
180 210 255
180 210 255
170 197 239
171 198 239
165 190 229
179 210 255
179 210 255
179 210 255
179 209 255
178 209 255
179 209 255
179 209 255
179 209 255
178 209 255
179 209 255
179 209 255
179 209 255
179 210 255
177 206 251
170 197 236
161 183 215
172 199 238
180 210 255
180 210 255
180 210 255
181 211 255
180 210 255
181 211 255
183 212 255
183 212 255
183 212 255
141 159 185
131 146 168
85 88 92
103 103 103
92 92 92
116 116 116
133 137 143
172 197 234
182 211 255
181 211 255
181 211 255
181 211 255
181 211 255
181 211 255
181 211 255
182 211 255
181 211 255
182 211 255
169 195 233
114 119 127
115 115 115
125 125 125
128 128 128
103 105 108
143 156 177
138 149 165
183 212 255
183 212 255
183 212 255
186 214 255
185 213 255
153 173 205
71 71 71
65 65 65
69 69 69
68 68 68
94 94 94
113 113 113
107 107 107
133 137 143
178 204 242
182 209 251
182 209 251
184 213 255
184 213 255
184 213 255
184 213 255
184 213 255
176 202 241
178 205 245
82 83 85
103 103 103
107 107 107
94 94 94
90 90 90
79 79 79
103 103 103
84 84 84
135 151 175
185 213 255
186 214 255
188 215 255
188 215 255
93 100 109
67 67 67
67 67 67
69 69 69
87 87 87
92 92 92
84 84 84
114 114 114
116 116 116
98 100 105
98 98 98
144 156 175
187 214 255
187 215 255
187 215 255
187 214 255
135 147 165
89 89 89
94 96 98
71 71 71
72 72 72
75 75 75
86 86 86
103 103 103
93 93 93
80 80 80
96 96 96
111 119 131
188 215 255
188 215 255
190 216 255
190 216 255
136 151 173
65 65 65
65 65 65
66 66 66
74 74 74
81 81 81
93 93 93
103 103 103
94 94 94
84 84 84
93 93 93
147 161 182
190 216 255
190 216 255
190 216 255
190 216 255
143 158 180
85 85 85
77 77 77
66 66 66
65 65 65
65 65 65
81 81 81
75 75 75
93 93 93
94 94 94
70 70 70
155 173 200
190 216 255
190 216 255
193 218 255
193 218 255
193 218 255
125 136 154
75 77 79
93 93 93
75 75 75
75 75 75
70 70 70
81 85 90
124 133 147
150 163 183
155 170 192
193 218 255
193 218 255
193 218 255
193 218 255
193 218 255
193 218 255
157 175 201
131 143 160
129 142 160
78 81 84
65 65 65
65 65 65
72 72 72
84 84 84
95 95 95
133 145 164
193 218 255
193 218 255
193 218 255
195 219 255
195 219 255
195 219 255
195 219 255
105 112 123
92 92 92
98 98 98
99 102 105
124 133 147
170 189 218
196 220 255
196 220 255
196 220 255
196 220 255
196 220 255
196 220 255
196 220 255
196 220 255
196 220 255
196 220 255
196 220 255
196 220 255
187 210 243
144 158 179
73 75 77
78 78 78
82 82 82
110 119 131
195 219 255
195 219 255
195 219 255
195 219 255
197 221 255
197 221 255
198 221 255
198 221 255
74 75 78
77 77 77
111 111 111
178 197 224
198 221 255
198 221 255
199 221 255
199 221 255
199 222 255
199 221 255
199 222 255
198 221 255
199 221 255
199 221 255
199 221 255
199 221 255
199 221 255
198 221 255
198 221 255
198 221 255
172 190 217
83 83 83
94 94 94
109 114 121
198 221 255
198 221 255
197 221 255
198 221 255
200 222 255
200 222 255
200 222 255
200 222 255
79 81 84
78 78 78
114 114 114
160 170 187
201 223 255
201 223 255
201 223 255
201 223 255
202 223 255
202 223 255
202 223 255
202 223 255
202 223 255
202 223 255
202 223 255
202 223 255
201 223 255
201 223 255
201 223 255
201 223 255
161 176 199
90 90 90
88 88 88
90 92 94
200 222 255
200 222 255
200 222 255
200 222 255
202 223 255
203 224 255
203 224 255
202 224 255
120 129 141
89 93 98
112 117 124
189 207 232
204 224 255
204 225 255
204 225 255
204 225 255
204 225 255
204 225 255
205 225 255
204 225 255
204 225 255
205 225 255
204 225 255
204 225 255
204 225 255
204 225 255
204 225 255
204 224 255
167 182 205
114 121 131
102 107 114
123 131 144
203 224 255
202 224 255
203 224 255
202 224 255
204 225 255
205 225 255
205 225 255
205 225 255
205 225 255
206 226 255
206 226 255
207 226 255
206 226 255
207 226 255
207 226 255
207 226 255
207 226 255
207 226 255
207 227 255
207 227 255
207 226 255
207 227 255
207 226 255
207 227 255
207 226 255
207 226 255
206 226 255
206 226 255
206 226 255
206 226 255
206 226 255
206 226 255
205 225 255
205 225 255
205 225 255
204 225 255
207 226 255
207 226 255
207 227 255
207 227 255
208 227 255
208 227 255
209 227 255
209 227 255
209 228 255
209 228 255
209 228 255
209 228 255
210 228 255
210 228 255
210 228 255
210 228 255
210 228 255
210 228 255
210 228 255
210 228 255
209 228 255
209 228 255
209 228 255
209 227 255
209 227 255
208 227 255
208 227 255
208 227 255
208 227 255
207 227 255
207 226 255
207 226 255
209 228 255
209 228 255
209 228 255
210 228 255
210 228 255
211 229 255
211 229 255
211 229 255
211 229 255
212 229 255
212 229 255
212 229 255
212 229 255
212 229 255
212 230 255
212 230 255
212 230 255
212 230 255
212 229 255
212 229 255
212 229 255
212 229 255
212 229 255
211 229 255
211 229 255
211 229 255
210 228 255
210 228 255
210 228 255
210 228 255
209 228 255
209 227 255
211 229 255
211 229 255
212 229 255
212 229 255
212 230 255
213 230 255
213 230 255
213 230 255
214 230 255
214 231 255
214 231 255
214 231 255
214 231 255
215 231 255
215 231 255
215 231 255
215 231 255
215 231 255
215 231 255
215 231 255
214 231 255
214 231 255
214 231 255
213 230 255
213 230 255
213 230 255
213 230 255
212 230 255
212 229 255
212 229 255
211 229 255
211 229 255
